<?xml version="1.0" standalone="no"?>
<!DOCTYPE svg PUBLIC "-//W3C//DTD SVG 20010904//EN"
 "http://www.w3.org/TR/2001/REC-SVG-20010904/DTD/svg10.dtd">
<svg version="1.0" xmlns="http://www.w3.org/2000/svg"
 width="2000.000000pt" height="1500.000000pt" viewBox="0 0 2000.000000 1500.000000"
 preserveAspectRatio="xMidYMid meet">
<metadata>
Created by potrace 1.16, written by Peter Selinger 2001-2019
</metadata>
<g transform="translate(0.000000,1500.000000) scale(0.100000,-0.100000)"
fill="#000000" stroke="none">
<path d="M0 7500 l0 -7500 10000 0 10000 0 0 7500 0 7500 -10000 0 -10000 0 0
-7500z m15070 5 l0 -1665 -455 0 -455 0 0 1665 0 1665 455 0 455 0 0 -1665z
m1110 0 l0 -1665 -455 0 -455 0 0 1665 0 1665 455 0 455 0 0 -1665z m1100 0
l0 -1665 -450 0 -450 0 0 1665 0 1665 450 0 450 0 0 -1665z m-4498 1195 c48
-14 97 -55 114 -97 57 -135 -55 -401 -305 -724 -36 -47 -140 -174 -231 -283
-91 -108 -168 -209 -172 -224 -39 -142 -59 -675 -29 -792 15 -60 54 -144 80
-174 25 -29 70 -48 94 -40 12 4 40 27 63 52 28 31 47 43 58 39 22 -9 20 -16
-13 -68 -33 -53 -79 -78 -156 -86 -80 -8 -121 3 -170 48 -47 44 -77 103 -101
206 -29 119 -22 480 13 682 6 34 5 33 -96 -56 -231 -205 -431 -322 -613 -359
-177 -36 -267 11 -304 157 -28 109 -9 255 60 456 49 143 91 241 224 520 66
138 123 260 127 272 12 38 -24 24 -121 -49 -51 -38 -125 -88 -166 -110 -80
-43 -204 -78 -221 -61 -16 16 0 40 30 46 102 22 225 99 412 255 109 91 221
207 221 229 0 15 52 31 101 31 51 0 89 -13 89 -30 0 -5 -50 -96 -111 -202
-133 -233 -329 -622 -388 -772 -108 -277 -130 -499 -60 -598 60 -83 224 -51
432 85 90 59 297 229 363 299 41 42 42 45 68 193 74 416 168 724 277 908 47
79 133 176 187 209 71 44 168 59 244 38z m-8674 -50 c32 -14 68 -40 92 -67
147 -167 6 -445 -348 -682 -163 -110 -398 -203 -517 -205 -68 -1 -70 0 -73 25
-5 41 25 58 132 74 311 47 569 223 701 481 33 64 40 89 43 148 3 61 1 76 -20
106 -37 56 -79 72 -173 67 -205 -11 -484 -174 -746 -436 -255 -255 -401 -477
-496 -756 -35 -103 -37 -118 -38 -230 0 -108 2 -125 25 -168 88 -173 333 -234
670 -167 196 40 419 131 578 236 94 63 253 217 292 283 120 204 225 320 350
385 115 61 233 61 289 2 40 -43 37 -146 -4 -146 -14 0 -20 15 -27 65 -5 30
-76 33 -135 4 -54 -26 -171 -139 -237 -229 -127 -172 -184 -368 -138 -472 24
-55 48 -70 112 -70 78 1 177 63 261 164 44 53 48 63 43 96 -7 43 22 89 59 94
16 2 28 18 45 58 20 48 22 67 18 151 -4 84 -3 99 13 113 42 38 104 7 117 -59
17 -92 -17 -203 -101 -329 -54 -81 -35 -126 52 -126 61 0 170 82 278 211 58
69 69 89 109 205 25 71 50 148 56 170 16 66 44 94 93 94 105 0 112 -20 57
-153 -22 -53 -72 -179 -110 -278 l-69 -182 37 44 c148 176 441 470 525 527
104 72 188 91 227 52 41 -41 22 -118 -82 -325 -99 -198 -121 -263 -122 -367
-1 -78 1 -90 21 -110 36 -35 84 -28 162 25 97 67 245 201 328 296 68 79 74 92
117 215 25 72 50 149 55 171 16 63 43 85 100 85 32 0 56 -6 71 -18 l22 -18
-42 -105 c-23 -57 -73 -185 -111 -284 -65 -171 -67 -178 -37 -145 140 158 343
370 422 440 186 164 326 206 352 105 9 -38 -20 -122 -101 -287 -92 -186 -125
-286 -125 -373 0 -79 14 -111 53 -124 23 -9 38 -7 71 8 99 44 320 239 432 381
200 256 516 469 694 470 109 0 162 -53 161 -161 0 -71 -24 -118 -92 -188 -109
-109 -346 -222 -473 -225 -44 -1 -51 2 -51 18 0 15 11 22 50 31 142 32 407
211 457 308 24 48 28 104 8 118 -22 14 -76 2 -144 -33 -93 -47 -142 -84 -250
-188 -294 -285 -345 -580 -98 -580 136 0 362 103 530 242 38 31 112 110 165
175 53 65 122 144 154 175 155 151 395 295 510 305 82 8 126 -2 162 -36 23
-21 31 -38 31 -63 0 -40 -43 -136 -65 -144 -29 -12 -39 11 -26 61 15 60 3 85
-43 85 -91 0 -217 -80 -376 -240 -117 -117 -163 -182 -207 -290 -50 -125 -38
-211 35 -246 90 -43 349 28 512 140 84 57 212 191 316 329 86 114 164 238 164
262 0 3 -17 5 -38 5 -71 0 -93 59 -37 96 13 8 49 18 80 21 67 7 59 -3 191 243
105 196 125 220 187 220 54 0 97 -29 97 -67 0 -37 -28 -90 -63 -119 -28 -23
-181 -274 -172 -282 1 -2 77 2 167 9 90 7 173 9 184 5 18 -7 18 -8 -4 -26 -27
-22 -76 -33 -242 -55 -69 -9 -134 -18 -145 -21 -24 -4 -61 -69 -161 -279 -101
-214 -119 -266 -119 -352 0 -62 3 -76 22 -95 32 -32 82 -27 146 14 89 56 253
204 344 308 47 55 90 100 95 100 21 0 18 -33 -5 -72 -38 -65 -189 -231 -281
-309 -108 -93 -203 -140 -293 -146 -58 -3 -74 0 -107 19 -99 58 -102 168 -12
403 5 11 -9 0 -30 -25 -242 -284 -455 -404 -719 -405 -94 0 -117 3 -160 23
-103 47 -150 119 -148 224 l0 68 -60 -56 c-126 -117 -294 -216 -422 -249 -75
-19 -217 -19 -281 0 -76 22 -139 67 -171 122 -24 40 -28 59 -28 118 l0 70 -80
-80 c-99 -100 -187 -168 -262 -203 -47 -21 -73 -26 -133 -26 -155 0 -210 78
-180 255 16 94 37 151 116 317 35 73 64 142 64 154 0 18 -4 20 -30 14 -81 -16
-216 -146 -394 -376 -263 -341 -249 -325 -321 -354 -67 -27 -105 -33 -105 -17
0 7 93 276 116 336 4 11 -27 -17 -70 -63 -102 -107 -215 -198 -296 -236 -117
-56 -253 -37 -301 41 -19 30 -21 45 -17 131 6 116 23 171 120 374 38 81 67
152 63 158 -12 19 -42 10 -104 -30 -87 -56 -179 -154 -328 -348 -250 -324
-239 -311 -309 -343 -62 -28 -94 -35 -107 -23 -3 3 21 82 54 176 32 93 59 171
59 173 0 2 -26 -24 -57 -57 -139 -147 -284 -188 -353 -101 l-20 26 -74 -72
c-169 -163 -379 -189 -490 -59 -44 51 -58 106 -54 210 l3 86 -87 -83 c-190
-181 -458 -317 -742 -376 -132 -28 -350 -31 -446 -5 -205 53 -344 178 -380
343 -16 68 -13 227 5 311 72 345 360 768 687 1012 147 110 323 199 470 236
139 36 324 33 416 -6z m9412 -660 c70 -36 88 -104 51 -186 -18 -40 -84 -104
-108 -104 -26 0 -22 21 12 71 36 53 46 104 23 127 -38 38 -244 -13 -394 -99
-89 -51 -212 -165 -243 -226 -48 -95 -22 -132 158 -232 209 -116 251 -181 194
-296 -66 -130 -242 -248 -451 -301 -128 -32 -205 -32 -237 1 -56 55 -12 142
103 203 33 18 65 32 71 32 22 0 11 -30 -16 -44 -57 -29 -100 -94 -83 -125 36
-69 220 3 359 139 74 72 112 139 119 210 4 41 1 51 -26 81 -17 19 -74 59 -127
89 -53 30 -114 74 -135 96 l-38 42 -57 -87 c-70 -106 -93 -131 -111 -124 -23
9 -16 29 40 115 66 102 100 169 116 228 17 63 45 114 87 161 95 105 314 221
471 249 66 12 179 2 222 -20z"/>
<path d="M12704 8611 c-16 -10 -51 -43 -76 -72 -160 -188 -286 -482 -367 -853
l-20 -89 56 54 c183 180 405 523 478 744 62 184 31 278 -71 216z"/>
</g>
</svg>
