<?xml version="1.0" standalone="no"?>
<!DOCTYPE svg PUBLIC "-//W3C//DTD SVG 20010904//EN"
 "http://www.w3.org/TR/2001/REC-SVG-20010904/DTD/svg10.dtd">
<svg version="1.0" xmlns="http://www.w3.org/2000/svg"
 width="500.000000pt" height="500.000000pt" viewBox="0 0 500.000000 500.000000"
 preserveAspectRatio="xMidYMid meet">
<metadata>
Created by potrace 1.16, written by Peter Selinger 2001-2019
</metadata>
<g transform="translate(0.000000,500.000000) scale(0.100000,-0.100000)"
fill="#000000" stroke="none">
<path d="M1208 2967 c-47 -47 -142 -184 -181 -262 -50 -101 -80 -207 -85 -296
l-4 -86 38 -42 c44 -49 81 -71 122 -71 51 0 150 87 192 169 22 44 37 121 24
121 -5 0 -22 -21 -39 -47 -48 -77 -135 -159 -183 -174 -38 -11 -44 -10 -63 7
-33 30 -21 121 36 276 69 188 167 348 234 382 63 33 66 -28 6 -128 -20 -32
-34 -61 -31 -64 10 -10 67 21 91 50 35 42 41 87 17 141 -23 51 -45 67 -95 67
-28 0 -44 -9 -79 -43z"/>
<path d="M3072 2983 c-16 -6 -86 -111 -110 -166 l-20 -44 -93 -7 c-51 -4 -97
-10 -103 -14 -19 -11 57 -21 121 -15 l62 6 -38 -101 c-30 -79 -53 -118 -105
-184 -74 -92 -130 -140 -153 -131 -33 13 1 191 59 307 14 28 23 35 30 28 8 -8
8 -22 0 -50 -16 -51 -15 -52 8 -52 47 0 51 106 5 136 -21 14 -26 14 -53 0 -35
-18 -58 -48 -96 -126 -43 -85 -146 -209 -199 -236 -24 -13 -28 -13 -33 1 -4 8
-3 40 1 70 6 51 9 57 44 74 20 11 56 40 79 65 67 72 54 131 -29 131 -47 0 -83
-33 -126 -111 -27 -50 -125 -144 -149 -144 -21 0 11 106 45 149 33 42 40 81
16 101 -8 6 -22 9 -33 6 -16 -6 -99 -106 -133 -163 -21 -35 -27 -27 -18 22 8
44 22 75 48 107 20 26 6 50 -26 46 -24 -3 -30 -12 -59 -98 -27 -79 -40 -101
-75 -132 -23 -21 -47 -38 -54 -38 -22 0 9 105 44 149 33 42 40 81 16 101 -8 6
-22 9 -33 6 -16 -6 -99 -106 -133 -163 -21 -35 -27 -27 -18 22 8 44 22 75 48
107 20 25 6 50 -25 46 -23 -3 -30 -13 -54 -78 -22 -60 -32 -76 -50 -78 -19 -3
-21 0 -15 15 4 10 10 42 13 71 4 48 2 56 -24 83 -48 50 -93 34 -147 -53 -10
-16 -23 -28 -30 -28 -36 0 -116 -124 -117 -180 0 -60 70 -120 125 -106 33 8
98 67 136 123 21 30 37 43 54 43 18 0 22 -4 18 -19 -7 -26 14 -61 36 -61 12 0
29 17 45 43 14 23 41 60 60 82 l35 40 -19 -40 c-12 -24 -20 -60 -20 -91 0 -45
4 -56 26 -73 38 -30 52 -27 95 20 22 24 40 36 44 30 14 -24 44 -10 69 32 14
23 41 60 60 82 l35 40 -19 -40 c-12 -24 -20 -60 -20 -91 0 -45 4 -56 26 -73
38 -30 52 -27 96 21 36 39 38 40 40 17 0 -13 0 -35 -1 -47 -3 -32 21 -66 57
-81 43 -18 79 4 147 89 31 39 57 70 58 70 1 0 1 -24 -1 -52 -4 -65 22 -121 56
-126 41 -6 81 19 152 95 39 41 70 71 70 67 -1 -5 -7 -36 -15 -69 -20 -82 -19
-118 6 -149 45 -57 82 -27 239 194 113 160 81 154 -48 -8 -102 -129 -142 -165
-142 -129 0 33 56 216 102 332 28 72 52 131 53 133 2 1 30 5 65 7 64 5 80 10
80 25 0 6 -25 7 -60 3 -45 -4 -60 -3 -60 7 0 14 25 59 79 138 29 44 33 55 21
62 -16 10 -47 12 -68 3z m-1522 -472 l38 -17 -34 -47 c-36 -49 -86 -82 -111
-73 -21 8 -12 59 22 134 23 49 28 55 37 39 5 -11 27 -27 48 -36z"/>
<path d="M3509 2923 c-12 -21 -32 -54 -45 -73 -58 -88 -144 -350 -144 -439 0
-44 4 -52 40 -85 22 -20 49 -36 59 -36 22 0 115 97 162 169 18 28 34 49 36 47
3 -2 0 -21 -6 -43 -6 -21 -14 -74 -17 -118 -6 -72 -4 -83 16 -107 31 -40 82
-39 106 1 l17 29 16 -31 c11 -22 28 -36 55 -45 50 -16 86 -8 119 26 34 36 47
73 47 135 0 51 1 52 43 75 58 31 117 80 117 98 0 16 -26 19 -35 4 -7 -11 -122
-80 -135 -80 -15 0 -33 140 -22 176 8 26 7 36 -4 45 -18 15 -61 -12 -74 -46
-9 -24 0 -108 20 -175 11 -38 15 -33 -70 -95 -23 -16 -48 -41 -56 -55 l-13
-25 -1 30 -1 30 -30 -37 c-17 -21 -35 -38 -40 -38 -48 0 72 397 150 497 12 14
21 29 21 34 0 16 -49 41 -64 32 -8 -4 -65 -84 -127 -178 -117 -178 -211 -295
-237 -295 -24 0 -9 120 28 225 18 50 33 100 34 112 0 11 5 19 10 15 5 -3 6 2
3 12 -4 9 -3 15 2 12 4 -3 18 17 30 44 12 26 35 65 51 86 34 41 37 65 14 88
-26 26 -51 19 -75 -21z"/>
</g>
</svg>
